<?xml version="1.0" encoding="utf-8"?>
<svg width="380" height="89" viewBox="0 0 380 89" fill="none" xmlns="http://www.w3.org/2000/svg" xmlns:xlink="http://www.w3.org/1999/xlink" xmlns:bx="https://boxy-svg.com">
  <path d="M 109.18 55.547 L 120.67 55.547 L 120.67 61.092 L 102.185 61.092 L 102.185 26.22 L 109.18 26.22 L 109.18 55.547 Z" style="fill-rule: nonzero; fill: url(#gradient-1); paint-order: fill;"/>
  <path d="M 137.406 61.542 C 134.742 61.542 132.343 60.959 130.212 59.793 C 128.08 58.594 126.398 56.912 125.166 54.747 C 123.967 52.582 123.367 50.084 123.367 47.253 C 123.367 44.422 123.984 41.924 125.216 39.759 C 126.482 37.594 128.197 35.929 130.362 34.763 C 132.527 33.564 134.941 32.965 137.606 32.965 C 140.27 32.965 142.685 33.564 144.85 34.763 C 147.015 35.929 148.714 37.594 149.946 39.759 C 151.212 41.924 151.844 44.422 151.844 47.253 C 151.844 50.084 151.195 52.582 149.896 54.747 C 148.63 56.912 146.898 58.594 144.7 59.793 C 142.535 60.959 140.104 61.542 137.406 61.542 Z M 137.406 55.447 C 138.672 55.447 139.854 55.147 140.953 54.547 C 142.086 53.915 142.985 52.982 143.651 51.75 C 144.317 50.517 144.65 49.018 144.65 47.253 C 144.65 44.622 143.951 42.607 142.552 41.208 C 141.186 39.776 139.504 39.06 137.506 39.06 C 135.508 39.06 133.826 39.776 132.46 41.208 C 131.128 42.607 130.462 44.622 130.462 47.253 C 130.462 49.884 131.111 51.916 132.41 53.348 C 133.742 54.747 135.408 55.447 137.406 55.447 Z" style="fill: url(#gradient-2);"/>
  <path d="M 155.177 47.253 C 155.177 44.389 155.759 41.891 156.925 39.759 C 158.091 37.594 159.706 35.929 161.771 34.763 C 163.836 33.564 166.201 32.965 168.866 32.965 C 172.296 32.965 175.127 33.831 177.359 35.563 C 179.624 37.261 181.139 39.659 181.905 42.757 L 174.361 42.757 C 173.961 41.558 173.279 40.625 172.313 39.959 C 171.38 39.26 170.214 38.91 168.816 38.91 C 166.817 38.91 165.235 39.643 164.069 41.108 C 162.904 42.54 162.321 44.589 162.321 47.253 C 162.321 49.884 162.904 51.933 164.069 53.398 C 165.235 54.83 166.817 55.547 168.816 55.547 C 171.647 55.547 173.495 54.281 174.361 51.75 L 181.905 51.75 C 181.139 54.747 179.624 57.129 177.359 58.894 C 175.094 60.659 172.263 61.542 168.866 61.542 C 166.201 61.542 163.836 60.959 161.771 59.793 C 159.706 58.594 158.091 56.929 156.925 54.797 C 155.759 52.632 155.177 50.118 155.177 47.253 Z" style="fill: url(#gradient-3);"/>
  <path d="M 185.231 47.153 C 185.231 44.356 185.78 41.874 186.879 39.709 C 188.012 37.544 189.527 35.879 191.426 34.713 C 193.357 33.548 195.506 32.965 197.87 32.965 C 199.935 32.965 201.734 33.381 203.266 34.214 C 204.831 35.046 206.08 36.095 207.013 37.361 L 207.013 33.414 L 214.057 33.414 L 214.057 61.092 L 207.013 61.092 L 207.013 57.045 C 206.114 58.344 204.865 59.427 203.266 60.293 C 201.701 61.125 199.885 61.542 197.82 61.542 C 195.489 61.542 193.357 60.942 191.426 59.743 C 189.527 58.544 188.012 56.862 186.879 54.697 C 185.78 52.499 185.231 49.984 185.231 47.153 Z M 207.013 47.253 C 207.013 45.555 206.68 44.106 206.014 42.907 C 205.348 41.674 204.448 40.742 203.316 40.109 C 202.184 39.443 200.968 39.11 199.669 39.11 C 198.37 39.11 197.171 39.426 196.072 40.059 C 194.973 40.692 194.073 41.624 193.374 42.857 C 192.708 44.056 192.375 45.488 192.375 47.153 C 192.375 48.819 192.708 50.284 193.374 51.55 C 194.073 52.782 194.973 53.731 196.072 54.397 C 197.204 55.064 198.403 55.397 199.669 55.397 C 200.968 55.397 202.184 55.08 203.316 54.447 C 204.448 53.781 205.348 52.849 206.014 51.65 C 206.68 50.417 207.013 48.952 207.013 47.253 Z" style="fill: url(#gradient-4);"/>
  <path d="M 227.883 24.122 L 227.883 61.092 L 220.889 61.092 L 220.889 24.122 L 227.883 24.122 Z" style="fill: url(#gradient-5);"/>
  <path d="M 246.834 61.442 C 244.402 61.442 242.204 61.025 240.239 60.193 C 238.307 59.36 236.775 58.161 235.643 56.596 C 234.51 55.03 233.928 53.182 233.894 51.05 L 241.388 51.05 C 241.488 52.482 241.988 53.615 242.887 54.447 C 243.82 55.28 245.085 55.696 246.684 55.696 C 248.316 55.696 249.598 55.313 250.531 54.547 C 251.463 53.748 251.93 52.715 251.93 51.45 C 251.93 50.417 251.613 49.568 250.98 48.902 C 250.348 48.236 249.548 47.719 248.582 47.353 C 247.65 46.953 246.351 46.52 244.686 46.054 C 242.421 45.388 240.572 44.739 239.14 44.106 C 237.741 43.44 236.525 42.457 235.493 41.158 C 234.494 39.826 233.994 38.061 233.994 35.862 C 233.994 33.797 234.51 31.999 235.543 30.467 C 236.575 28.935 238.024 27.769 239.889 26.969 C 241.755 26.137 243.886 25.721 246.284 25.721 C 249.881 25.721 252.796 26.603 255.027 28.368 C 257.292 30.1 258.541 32.532 258.774 35.663 L 251.08 35.663 C 251.014 34.463 250.498 33.481 249.532 32.715 C 248.599 31.916 247.35 31.516 245.785 31.516 C 244.419 31.516 243.32 31.866 242.487 32.565 C 241.688 33.264 241.288 34.28 241.288 35.613 C 241.288 36.545 241.588 37.328 242.188 37.961 C 242.82 38.56 243.586 39.06 244.486 39.459 C 245.418 39.826 246.717 40.259 248.383 40.758 C 250.647 41.425 252.496 42.091 253.928 42.757 C 255.36 43.423 256.593 44.422 257.625 45.754 C 258.658 47.087 259.174 48.835 259.174 51 C 259.174 52.865 258.691 54.597 257.725 56.196 C 256.759 57.795 255.344 59.077 253.478 60.043 C 251.613 60.976 249.398 61.442 246.834 61.442 Z" style="fill: url(#gradient-6);"/>
  <path d="M 273.381 39.16 L 273.381 52.549 C 273.381 53.482 273.598 54.164 274.031 54.597 C 274.497 54.997 275.263 55.197 276.329 55.197 L 279.576 55.197 L 279.576 61.092 L 275.18 61.092 C 269.285 61.092 266.337 58.228 266.337 52.499 L 266.337 39.16 L 263.04 39.16 L 263.04 33.414 L 266.337 33.414 L 266.337 26.57 L 273.381 26.57 L 273.381 33.414 L 279.576 33.414 L 279.576 39.16 L 273.381 39.16 Z" style="fill: url(#gradient-0);"/>
  <path d="M 282.808 47.153 C 282.808 44.356 283.358 41.874 284.457 39.709 C 285.59 37.544 287.105 35.879 289.003 34.713 C 290.935 33.548 293.083 32.965 295.448 32.965 C 297.513 32.965 299.312 33.381 300.844 34.214 C 302.409 35.046 303.658 36.095 304.591 37.361 L 304.591 33.414 L 311.635 33.414 L 311.635 61.092 L 304.591 61.092 L 304.591 57.045 C 303.692 58.344 302.443 59.427 300.844 60.293 C 299.279 61.125 297.463 61.542 295.398 61.542 C 293.067 61.542 290.935 60.942 289.003 59.743 C 287.105 58.544 285.59 56.862 284.457 54.697 C 283.358 52.499 282.808 49.984 282.808 47.153 Z M 304.591 47.253 C 304.591 45.555 304.258 44.106 303.592 42.907 C 302.926 41.674 302.026 40.742 300.894 40.109 C 299.761 39.443 298.546 39.11 297.247 39.11 C 295.948 39.11 294.749 39.426 293.65 40.059 C 292.551 40.692 291.651 41.624 290.952 42.857 C 290.286 44.056 289.953 45.488 289.953 47.153 C 289.953 48.819 290.286 50.284 290.952 51.55 C 291.651 52.782 292.551 53.731 293.65 54.397 C 294.782 55.064 295.981 55.397 297.247 55.397 C 298.546 55.397 299.761 55.08 300.894 54.447 C 302.026 53.781 302.926 52.849 303.592 51.65 C 304.258 50.417 304.591 48.952 304.591 47.253 Z" style="fill: url(#gradient-9-0);"/>
  <path d="M 316.668 47.253 C 316.668 44.389 317.251 41.891 318.417 39.759 C 319.582 37.594 321.198 35.929 323.263 34.763 C 325.328 33.564 327.692 32.965 330.357 32.965 C 333.788 32.965 336.619 33.831 338.85 35.563 C 341.115 37.261 342.63 39.659 343.396 42.757 L 335.853 42.757 C 335.453 41.558 334.77 40.625 333.804 39.959 C 332.872 39.26 331.706 38.91 330.307 38.91 C 328.309 38.91 326.727 39.643 325.561 41.108 C 324.395 42.54 323.812 44.589 323.812 47.253 C 323.812 49.884 324.395 51.933 325.561 53.398 C 326.727 54.83 328.309 55.547 330.307 55.547 C 333.138 55.547 334.987 54.281 335.853 51.75 L 343.396 51.75 C 342.63 54.747 341.115 57.129 338.85 58.894 C 336.585 60.659 333.754 61.542 330.357 61.542 C 327.692 61.542 325.328 60.959 323.263 59.793 C 321.198 58.594 319.582 56.929 318.417 54.797 C 317.251 52.632 316.668 50.118 316.668 47.253 Z" style="fill: url(#gradient-9-1);"/>
  <path d="M 364.907 61.092 L 355.515 49.302 L 355.515 61.092 L 348.52 61.092 L 348.52 24.122 L 355.515 24.122 L 355.515 45.155 L 364.807 33.414 L 373.9 33.414 L 361.71 47.303 L 374 61.092 L 364.907 61.092 Z" style="fill: url(#gradient-9-2);"/>
  <path fill-rule="evenodd" clip-rule="evenodd" d="M76.2983 61.8727C77.3006 61.8727 77.8025 63.0845 77.0938 63.7932L52.7163 88.1688C52.0076 88.8775 50.7957 88.3756 50.7957 87.3734L50.7957 62.9977C50.7957 62.3764 51.2994 61.8727 51.9208 61.8727L76.2983 61.8727ZM1.12732 38.9036C0.12502 38.9036 -0.376933 37.6918 0.331807 36.9832L24.7093 12.6075C25.418 11.8988 26.6298 12.4007 26.6298 13.4029L26.6298 37.7786C26.6298 38.3999 26.1261 38.9036 25.5048 38.9036L1.12732 38.9036Z" fill="url(#paint0_linear_20_3)"/>
  <path d="M54.1934 34.9029L86.8489 34.9029C87.4702 34.9029 87.9739 34.3993 87.9739 33.778L87.9739 1.12488C87.9739 0.503582 87.4702 -8.01527e-05 86.8489 -8.0207e-05L54.1934 -8.30618e-05C53.5721 -8.31162e-05 53.0684 0.503579 53.0684 1.12487L53.0684 33.778C53.0684 34.3993 53.5721 34.9029 54.1934 34.9029Z" fill="url(#paint1_linear_20_3)"/>
  <path d="M78.3818 56.248L33.3801 56.248C32.7588 56.248 32.2551 55.7443 32.2551 55.123L32.2551 10.1246C32.2551 9.50333 32.7588 8.99967 33.3801 8.99967L46.3181 8.99967C46.9394 8.99967 47.4431 9.50333 47.4431 10.1246L47.4431 39.3736C47.4431 39.9949 47.9468 40.4986 48.5682 40.4986L78.3818 40.4986C79.0031 40.4986 79.5068 41.0022 79.5068 41.6235L79.5068 55.123C79.5068 55.7443 79.0031 56.248 78.3818 56.248Z" fill="url(#paint2_linear_20_3)"/>
  <defs>
    <linearGradient id="paint0_linear_20_3" x1="77.5035" y1="12.0444" x2="13.9516" y2="74.968" gradientUnits="userSpaceOnUse">
      <stop stop-color="#4D29B4"/>
      <stop offset="1" stop-color="#836FFF"/>
    </linearGradient>
    <linearGradient id="paint1_linear_20_3" x1="50.0107" y1="36.657" x2="93.9964" y2="-6.54887" gradientUnits="userSpaceOnUse">
      <stop stop-color="#70FFE5"/>
      <stop offset="1" stop-color="#6295E1"/>
    </linearGradient>
    <linearGradient id="paint2_linear_20_3" x1="73.8377" y1="19.3759" x2="32.4705" y2="58.6544" gradientUnits="userSpaceOnUse">
      <stop offset="0.0075" stop-color="#654FEC"/>
      <stop offset="1" stop-color="#71B2FF"/>
    </linearGradient>
    <linearGradient gradientUnits="userSpaceOnUse" x1="117.427" y1="17.22" x2="117.427" y2="52.092" id="gradient-1" gradientTransform="matrix(1, 0, 0, 1, -6, 9)">
      <stop offset="0" style="stop-color: rgba(101, 170, 226, 1)"/>
      <stop offset="1" style="stop-color: rgb(110, 245, 228);"/>
    </linearGradient>
    <linearGradient gradientUnits="userSpaceOnUse" x1="143.605" y1="23.965" x2="143.605" y2="52.542" id="gradient-2" gradientTransform="matrix(1, 0, 0, 1, -6, 9)">
      <stop offset="0" style="stop-color: rgba(100, 166, 227, 1)"/>
      <stop offset="1" style="stop-color: rgb(108, 241, 228);"/>
    </linearGradient>
    <linearGradient gradientUnits="userSpaceOnUse" x1="174.541" y1="23.965" x2="174.541" y2="52.542" id="gradient-3" gradientTransform="matrix(1, 0, 0, 1, -6, 9)">
      <stop offset="0" style="stop-color: rgb(101, 169, 226);"/>
      <stop offset="1" style="stop-color: rgb(109, 238, 229);"/>
    </linearGradient>
    <linearGradient gradientUnits="userSpaceOnUse" x1="205.644" y1="23.965" x2="205.644" y2="52.542" id="gradient-4" gradientTransform="matrix(1, 0, 0, 1, -6, 9)">
      <stop offset="0" style="stop-color: rgb(100, 168, 225);"/>
      <stop offset="1" style="stop-color: rgb(111, 245, 228);"/>
    </linearGradient>
    <linearGradient gradientUnits="userSpaceOnUse" x1="230.386" y1="15.122" x2="230.386" y2="52.092" id="gradient-5" gradientTransform="matrix(1, 0, 0, 1, -6, 9)">
      <stop offset="0" style="stop-color: rgb(101, 168, 226);"/>
      <stop offset="1" style="stop-color: rgb(110, 244, 229);"/>
    </linearGradient>
    <linearGradient id="gradient-6" x1="252.534" x2="252.534" y1="16.721" y2="52.442" gradientUnits="userSpaceOnUse" gradientTransform="matrix(1, 0, 0, 1, -6, 9)">
      <stop offset="0" style="stop-color: rgb(100, 175, 226);"/>
      <stop offset="1" style="stop-color: rgb(110, 240, 228);"/>
    </linearGradient>
    <linearGradient gradientUnits="userSpaceOnUse" x1="277.308" y1="17.57" x2="277.308" y2="52.092" id="gradient-0" gradientTransform="matrix(1, 0, 0, 1, -6, 9)">
      <stop offset="0" style="stop-color: rgb(101, 179, 226);"/>
      <stop offset="1" style="stop-color: rgb(110, 238, 228);"/>
    </linearGradient>
    <linearGradient id="gradient-9" bx:pinned="true">
      <stop style="stop-color: rgb(101, 179, 226);" offset="0"/>
      <stop style="stop-color: rgb(110, 238, 228);" offset="1"/>
    </linearGradient>
    <linearGradient id="gradient-9-0" gradientUnits="userSpaceOnUse" x1="303.222" y1="23.965" x2="303.222" y2="52.542" gradientTransform="matrix(1, 0, 0, 1, -6, 9)" xlink:href="#gradient-9"/>
    <linearGradient id="gradient-9-1" gradientUnits="userSpaceOnUse" x1="336.032" y1="23.965" x2="336.032" y2="52.542" gradientTransform="matrix(1, 0, 0, 1, -6, 9)" xlink:href="#gradient-9"/>
    <linearGradient id="gradient-9-2" gradientUnits="userSpaceOnUse" x1="367.26" y1="15.122" x2="367.26" y2="52.092" gradientTransform="matrix(1, 0, 0, 1, -6, 9)" xlink:href="#gradient-9"/>
  </defs>
</svg>